Coordinates
version=1
nRows=12
nColumns=23
inDegrees=yes

Units are S.I. units (second, meters, Newtons, ...)
If the header above contains a line with 'inDegrees', this indicates whether rotational values are in degrees (yes) or radians (no).

endheader
time	pelvis_tilt	pelvis_list	pelvis_rotation	pelvis_tx	pelvis_ty	pelvis_tz	hip_flexion_r	hip_adduction_r	hip_rotation_r	knee_angle_r	knee_angle_r_beta	ankle_angle_r	subtalar_angle_r	mtp_angle_r	hip_flexion_l	hip_adduction_l	hip_rotation_l	knee_angle_l	knee_angle_l_beta	ankle_angle_l	subtalar_angle_l	mtp_angle_l
      7.50000000	     -9.39201191	      3.50097357	      2.34544539	      2.17596825	      1.05937477	      0.99624770	     -5.76547040	     -4.02193513	    -13.64090288	     23.19204674	      0.40477758	     -6.45742289	      2.50359648	      0.00000000	     36.35918978	      2.15782956	     -7.74996872	     63.48661970	      1.10805054	      7.93863785	     -5.34156229	      0.00000000
      7.50666667	     -9.78999863	      3.78830077	      2.58130184	      2.17769607	      1.06280362	      0.99548093	     -6.67014210	     -4.28374138	    -13.35013489	     22.38036812	      0.39061111	     -9.87383583	      1.94936400	      0.00000000	     36.82838357	      2.78359182	     -8.21650424	     59.84342434	      1.04446479	      8.23620356	     -4.66569738	      0.00000000
      7.51333333	    -10.25258336	      4.03397411	      2.85480117	      2.17932790	      1.06589764	      0.99462658	     -7.33712218	     -4.56970793	    -13.17196023	     21.89800939	      0.38219236	    -13.00595878	      1.52380495	      0.00000000	     37.27552048	      3.40484220	     -8.62271224	     56.06312174	      0.97848606	      8.51143624	     -3.80411269	      0.00000000
      7.52000000	    -10.77714303	      4.20047632	      3.14612929	      2.18084285	      1.06863169	      0.99372389	     -7.79571574	     -4.79150730	    -12.92392876	     21.67356016	      0.37827499	    -15.84063219	      1.07082164	      0.00000000	     37.70724689	      3.96062288	     -8.99572845	     52.17917350	      0.91069838	      8.80340699	     -2.74173174	      0.00000000
      7.52666667	    -11.41422987	      4.30578844	      3.48294351	      2.18218110	      1.07082681	      0.99275915	     -7.93589302	     -5.04113468	    -12.89102198	     21.86999226	      0.38170337	    -18.21643452	      0.82959860	      0.00000000	     38.19215055	      4.49781175	     -9.31016196	     48.22416147	      0.84167040	      9.08020509	     -1.51206059	      0.00000000
      7.53333333	    -11.88744323	      4.33602999	      3.80176165	      2.18355740	      1.07285652	      0.99185994	     -8.21361583	     -5.10139371	    -12.43289919	     22.12228732	      0.38610675	    -20.30586234	      0.09746345	      0.00000000	     38.41263553	      4.91199549	     -9.70805311	     44.22616929	      0.77189227	      9.45706953	      0.15838175	      0.00000000
      7.54000000	    -12.52393596	      4.31799619	      4.19610905	      2.18472371	      1.07418185	      0.99082258	     -8.11486643	     -5.22821725	    -12.33314900	     22.85032522	      0.39881341	    -21.66358712	     -0.18476619	      0.00000000	     38.76239884	      5.39761913	     -9.93172214	     40.22572196	      0.70207129	      9.81191623	      1.71348539	      0.00000000
      7.54666667	    -13.05319311	      4.27381843	      4.55714651	      2.18586441	      1.07514580	      0.98983140	     -8.02488666	     -5.31349487	    -12.11985753	     23.82099815	      0.41575485	    -22.48698033	     -0.57300239	      0.00000000	     38.93977488	      5.83934562	    -10.18509341	     36.27423271	      0.63310479	     10.22692976	      3.51938028	      0.00000000
      7.55333333	    -13.50019721	      4.19584695	      4.90253354	      2.18692941	      1.07564928	      0.98889354	     -7.90946357	     -5.35778525	    -11.87311077	     25.04662304	      0.43714604	    -22.75078056	     -0.93054401	      0.00000000	     39.00518367	      6.25653473	    -10.39451543	     32.45188973	      0.56639232	     10.71338627	      5.45900925	      0.00000000
      7.56000000	    -13.87534433	      4.11338184	      5.23081122	      2.18798192	      1.07567592	      0.98798474	     -7.77058873	     -5.42005208	    -11.69960008	     26.51516344	      0.46277690	    -22.51019457	     -1.20479248	      0.00000000	     38.97907008	      6.68649025	    -10.50264428	     28.81386247	      0.50289677	     11.22564805	      7.35824802	      0.00000000
      7.56666667	    -14.14948249	      4.03434926	      5.55611867	      2.18894757	      1.07529112	      0.98709305	     -7.62798655	     -5.49955886	    -11.59032015	     28.23361190	      0.49276949	    -21.90401492	     -1.46144871	      0.00000000	     38.83682727	      7.17227740	    -10.31437271	     25.38254056	      0.44300891	     11.72838295	      9.00840567	      0.00000000
      7.57333333	    -14.28395457	      3.99467115	      5.89058616	      2.18988384	      1.07453185	      0.98622394	     -7.53959630	     -5.65938464	    -11.67112564	     30.18258169	      0.52678543	    -21.01802873	     -1.45950991	      0.00000000	     38.51929761	      7.74649423	     -9.72668726	     22.17031119	      0.38694493	     12.11242142	     10.08146029	      0.00000000
